SRRun01_grf
version=1
nRows=15
nColumns=19
inDegrees=no
endheader
time	ground_force_r_vx	ground_force_r_vy	ground_force_r_vz	ground_force_r_px	ground_force_r_py	ground_force_r_pz	ground_force_r_mx	ground_force_r_my	ground_force_r_mz	ground_force_l_vx	ground_force_l_vy	ground_force_l_vz	ground_force_l_px	ground_force_l_py	ground_force_l_pz	ground_force_l_mx	ground_force_l_my	ground_force_l_mz
    155.99900000	      0.00000000	      0.00000000	      0.00000000	      0.00000000	      0.00000000	      0.00000000	      0.00000000	      0.00000000	      0.00000000	     66.07801082	   1963.51037209	    -75.11773016	      0.74273259	      0.00000000	     -0.95796271	      0.00007782	      2.77335246	      0.00006562
    156.00000000	      0.00000000	      0.00000000	      0.00000000	      0.00000000	      0.00000000	      0.00000000	      0.00000000	      0.00000000	      0.00000000	     70.23916718	   1946.43785502	    -89.86610032	      0.74301704	      0.00000000	     -0.95469073	      0.00007706	      2.92261136	      0.00006500
    156.00100000	      0.00000000	      0.00000000	      0.00000000	      0.00000000	      0.00000000	      0.00000000	      0.00000000	      0.00000000	      0.00000000	     73.62801839	   1928.80454206	   -105.48698836	      0.74326235	      0.00000000	     -0.95138531	      0.00007644	      2.66439076	      0.00006441
    156.00200000	      0.00000000	      0.00000000	      0.00000000	      0.00000000	      0.00000000	      0.00000000	      0.00000000	      0.00000000	      0.00000000	     75.91998927	   1910.44366472	   -120.93297926	      0.74344681	      0.00000000	     -0.94808911	      0.00007598	      2.04083140	      0.00006380
    156.00300000	      0.00000000	      0.00000000	      0.00000000	      0.00000000	      0.00000000	      0.00000000	      0.00000000	      0.00000000	      0.00000000	     76.88834247	   1891.19541958	   -135.15819858	      0.74355200	      0.00000000	     -0.94484181	      0.00007566	      1.09029763	      0.00006314
    156.00400000	      0.00000000	      0.00000000	      0.00000000	      0.00000000	      0.00000000	      0.00000000	      0.00000000	      0.00000000	      0.00000000	     76.41735908	   1870.92505686	   -147.23533093	      0.74356435	      0.00000000	     -0.94167666	      0.00007542	     -0.15455069	      0.00006244
    156.00500000	      0.00000000	      0.00000000	      0.00000000	      0.00000000	      0.00000000	      0.00000000	      0.00000000	      0.00000000	      0.00000000	     74.50610514	   1849.53965023	   -156.45916639	      0.74347657	      0.00000000	     -0.93861781	      0.00007522	     -1.66617340	      0.00006174
    156.00600000	      0.00000000	      0.00000000	      0.00000000	      0.00000000	      0.00000000	      0.00000000	      0.00000000	      0.00000000	      0.00000000	     71.26296598	   1827.00157474	   -162.42468944	      0.74328870	      0.00000000	     -0.93567839	      0.00007495	     -3.41946261	      0.00006109
    156.00700000	      0.00000000	      0.00000000	      0.00000000	      0.00000000	      0.00000000	      0.00000000	      0.00000000	      0.00000000	      0.00000000	     66.89182373	   1803.33680888	   -165.07073507	      0.74300866	      0.00000000	     -0.93285932	      0.00007457	     -5.38758308	      0.00006060
    156.00800000	      0.00000000	      0.00000000	      0.00000000	      0.00000000	      0.00000000	      0.00000000	      0.00000000	      0.00000000	      0.00000000	     61.67139241	   1778.63663453	   -164.68432739	      0.74265206	      0.00000000	     -0.93014906	      0.00007400	     -7.53711911	      0.00006035
    156.00900000	      0.00000000	      0.00000000	      0.00000000	      0.00000000	      0.00000000	      0.00000000	      0.00000000	      0.00000000	      0.00000000	     55.92984366	   1753.05215064	   -161.86554102	      0.74224124	      0.00000000	     -0.92752435	      0.00007324	     -9.82334991	      0.00006044
    156.01000000	      0.00000000	      0.00000000	      0.00000000	      0.00000000	      0.00000000	      0.00000000	      0.00000000	      0.00000000	      0.00000000	     50.01732701	   1726.78200086	   -157.45745201	      0.74180359	      0.00000000	     -0.92495224	      0.00007227	    -12.18642134	      0.00006094
    156.01100000	      0.00000000	      0.00000000	      0.00000000	      0.00000000	      0.00000000	      0.00000000	      0.00000000	      0.00000000	      0.00000000	     44.27906057	   1700.05453931	   -152.44974596	      0.74136938	      0.00000000	     -0.92239327	      0.00007114	    -14.54905598	      0.00006186
    156.01200000	      0.00000000	      0.00000000	      0.00000000	      0.00000000	      0.00000000	      0.00000000	      0.00000000	      0.00000000	      0.00000000	     39.03124391	   1673.10627246	   -147.86728191	      0.74096929	      0.00000000	     -0.91980554	      0.00006989	    -16.81630971	      0.00006319
    156.01300000	      0.00000000	      0.00000000	      0.00000000	      0.00000000	      0.00000000	      0.00000000	      0.00000000	      0.00000000	      0.00000000	     34.54133774	   1646.15891667	   -144.65620902	      0.74063176	      0.00000000	     -0.91714919	      0.00006858	    -18.87778778	      0.00006484
